0
SECTION
2
HEADER
9
$INSUNITS
70
4
9
$ACADVER
1
AC1014
9
$HANDSEED
5
FFFF
0
ENDSEC
0
SECTION
2
TABLES
0
TABLE
2
VPORT
5
8
100
AcDbSymbolTable
0
ENDTAB
0
TABLE
2
LTYPE
5
5
100
AcDbSymbolTable
0
LTYPE
5
14
100
AcDbSymbolTableRecord
100
AcDbLinetypeTableRecord
2
BYBLOCK
70
0
0
LTYPE
5
15
100
AcDbSymbolTableRecord
100
AcDbLinetypeTableRecord
2
BYLAYER
70
0
0
ENDTAB
0
TABLE
2
LAYER
5
2
100
AcDbSymbolTable
70
2
0
LAYER
5
50
100
AcDbSymbolTableRecord
100
AcDbLayerTableRecord
2
0
70
0
6
CONTINUOUS
0
ENDTAB
0
TABLE
2
STYLE
5
3
100
AcDbSymbolTable
70
1
0
STYLE
5
11
100
AcDbSymbolTableRecord
100
AcDbTextStyleTableRecord
2
STANDARD
70
0
0
ENDTAB
0
TABLE
2
VIEW
5
6
100
AcDbSymbolTable
70
0
0
ENDTAB
0
TABLE
2
UCS
5
7
100
AcDbSymbolTable
70
0
0
ENDTAB
0
TABLE
2
APPID
5
9
100
AcDbSymbolTable
70
2
0
APPID
5
12
100
AcDbSymbolTableRecord
100
AcDbRegAppTableRecord
2
ACAD
70
0
0
ENDTAB
0
TABLE
2
DIMSTYLE
5
A
100
AcDbSymbolTable
70
1
0
ENDTAB
0
TABLE
2
BLOCK_RECORD
5
1
100
AcDbSymbolTable
70
1
0
BLOCK_RECORD
5
1F
100
AcDbSymbolTableRecord
100
AcDbBlockTableRecord
2
*MODEL_SPACE
0
BLOCK_RECORD
5
1B
100
AcDbSymbolTableRecord
100
AcDbBlockTableRecord
2
*PAPER_SPACE
0
ENDTAB
0
ENDSEC
0
SECTION
2
BLOCKS
0
BLOCK
5
20
100
AcDbEntity
100
AcDbBlockBegin
2
*MODEL_SPACE
0
ENDBLK
5
21
100
AcDbEntity
100
AcDbBlockEnd
0
BLOCK
5
1C
100
AcDbEntity
100
AcDbBlockBegin
2
*PAPER_SPACE
0
ENDBLK
5
1D
100
AcDbEntity
100
AcDbBlockEnd
0
ENDSEC
0
SECTION
2
ENTITIES
0
LINE
5
100
100
AcDbEntity
8
0
100
AcDbLine
10
81.996516223824074
20
58.997492969124949
30
0
11
-82.003483776175941
21
58.997492969124934
31
0
0
LINE
5
101
100
AcDbEntity
8
0
100
AcDbLine
10
-82.003483776175941
20
-59.002506207977547
30
0
11
82.010451920588537
21
-59.002506207977547
31
0
0
LINE
5
102
100
AcDbEntity
8
0
100
AcDbLine
10
81.996516223824074
20
58.997492969124949
30
0
11
-82.003483776175941
21
-59.002506207977547
31
0
0
LINE
5
103
100
AcDbEntity
8
0
100
AcDbLine
10
-82.003483776175941
20
58.997492969124934
30
0
11
82.010451920588537
21
-59.002506207977547
31
0
0
LINE
5
104
100
AcDbEntity
8
0
100
AcDbLine
10
82.010451920588537
20
-59.002506207977547
30
0
11
68.010451920588537
21
-59.002506207977547
31
0
0
LINE
5
105
100
AcDbEntity
8
0
100
AcDbLine
10
82.010451920588537
20
-46.502506207977547
30
0
11
82.010451920588537
21
-59.002506207977547
31
0
0
LINE
5
106
100
AcDbEntity
8
0
100
AcDbLine
10
-82.003483776175941
20
-59.002506207977547
30
0
11
-68.003483776175926
21
-59.002506207977547
31
0
0
LINE
5
107
100
AcDbEntity
8
0
100
AcDbLine
10
-82.003483776175941
20
-46.502506207977547
30
0
11
-82.003483776175941
21
-59.002506207977547
31
0
0
LINE
5
108
100
AcDbEntity
8
0
100
AcDbLine
10
68.010248914095484
20
-57.002506218280466
30
0
11
55.010451920588544
21
-59.002506207977547
31
0
0
LINE
5
109
100
AcDbEntity
8
0
100
AcDbLine
10
-68.003407587792751
20
-57.002506209428731
30
0
11
-55.003483776175955
21
-59.002506207977547
31
0
0
LINE
5
110
100
AcDbEntity
8
0
100
AcDbLine
10
-82.003397608919798
20
-44.00250620946251
30
0
11
-79.503484963172156
21
-46.500070026629203
31
0
0
LINE
5
111
100
AcDbEntity
8
0
100
AcDbLine
10
82.010278286800414
20
-44.002506214007269
30
0
11
79.510453132845086
21
-46.500044240863431
31
0
0
LINE
5
112
100
AcDbEntity
8
0
100
AcDbLine
10
68.010248914095541
20
-50.499394380263738
30
0
11
89.000001326203346
21
-50.499394380263738
31
0
0
LINE
5
113
100
AcDbEntity
8
0
100
AcDbLine
10
72.010248914095541
20
-50.499394380263738
30
0
11
72.007871388491097
21
-40.000000595565936
31
0
0
ARC
5
114
100
AcDbEntity
8
0
100
AcDbCircle
10
72.010248914095541
20
-50.499394380263738
30
0
40
4.0000000000000089
210
0
220
-0
230
1
100
AcDbArc
50
89.995035451197595
51
180
0
LINE
5
115
100
AcDbEntity
8
0
100
AcDbLine
10
-68.003861351062
20
-50.499265508955688
30
0
11
-77.28782597486817
21
-50.499913297086756
31
0
0
LINE
5
116
100
AcDbEntity
8
0
100
AcDbLine
10
-72.003861341324949
20
-50.499544608739356
30
0
11
-72.004323876661147
21
-43.870584470371767
31
0
0
ARC
5
117
100
AcDbEntity
8
0
100
AcDbCircle
10
-72.003861341324949
20
-50.499544608739356
30
0
40
4.0000000000000338
210
0
220
-0
230
1
100
AcDbArc
50
0.0039978098455274308
51
89.944705766960084
0
LINE
5
118
100
AcDbEntity
8
0
100
AcDbLine
10
81.996516223824074
20
58.997492969124949
30
0
11
69.496516223824074
21
58.997492969124949
31
0
0
LINE
5
119
100
AcDbEntity
8
0
100
AcDbLine
10
81.996516223824074
20
46.497492969124934
30
0
11
81.996516223824074
21
58.997492969124949
31
0
0
LINE
5
120
100
AcDbEntity
8
0
100
AcDbLine
10
-82.003483776175941
20
58.997492969124934
30
0
11
-69.503483776175941
21
58.997492969124927
31
0
0
LINE
5
121
100
AcDbEntity
8
0
100
AcDbLine
10
-82.003483776175941
20
46.497492969124934
30
0
11
-82.003483776175941
21
58.997492969124934
31
0
0
LINE
5
122
100
AcDbEntity
8
0
100
AcDbLine
10
-69.500000000000014
20
58.000000000000007
30
0
11
-102.00000151991844
21
58.000000000000014
31
0
0
LINE
5
123
100
AcDbEntity
8
0
100
AcDbLine
10
-81.000000000000014
20
46.5
30
0
11
-81.000000000000014
21
63.000000938773155
31
0
0
ARC
5
124
100
AcDbEntity
8
0
100
AcDbCircle
10
-81.000000000000014
20
58.000000000000007
30
0
40
11.500000000000004
210
-0
220
0
230
1
100
AcDbArc
50
-90
51
0
0
LINE
5
125
100
AcDbEntity
8
0
100
AcDbLine
10
80.999825730427744
20
60.000000894069814
30
0
11
80.999757711927899
21
46.499698602846351
31
0
0
LINE
5
126
100
AcDbEntity
8
0
100
AcDbLine
10
69.500000000000014
20
58.000000000000014
30
0
11
88.000001311302185
21
58.000000000000028
31
0
0
ARC
5
127
100
AcDbEntity
8
0
100
AcDbCircle
10
80.999815653834077
20
58.000000000000014
30
0
40
11.500301397299657
210
0
220
0
230
1
100
AcDbArc
50
179.99919132175492
51
269.99971132698477
0
LINE
5
128
100
AcDbEntity
8
0
100
AcDbLine
10
69.499514257679891
20
58.000162316438555
30
0
11
68.502182782095971
21
58.997493792022468
31
0
0
LINE
5
129
100
AcDbEntity
8
0
100
AcDbLine
10
69.499514257679891
20
58.000162316438555
30
0
11
71.106973572946231
21
58.000162316438555
31
0
0
LINE
5
130
100
AcDbEntity
8
0
100
AcDbLine
10
80.999757711927899
20
46.499698602846351
30
0
11
81.996516223824074
21
45.50294009095019
31
0
0
LINE
5
131
100
AcDbEntity
8
0
100
AcDbLine
10
80.999757711927899
20
46.499698602846351
30
0
11
82.472136627554121
21
46.499698602846351
31
0
0
LINE
5
132
100
AcDbEntity
8
0
100
AcDbLine
10
-69.500000000000014
20
58.000000000000007
30
0
11
-68.502506207977547
21
58.997493792022468
31
0
0
LINE
5
133
100
AcDbEntity
8
0
100
AcDbLine
10
-69.500000000000014
20
58.000000000000007
30
0
11
-68.063024083316165
21
58.000000000000007
31
0
0
LINE
5
134
100
AcDbEntity
8
0
100
AcDbLine
10
-81.000000000000014
20
46.5
30
0
11
-82.012129923058396
21
45.487870076941626
31
0
0
LINE
5
135
100
AcDbEntity
8
0
100
AcDbLine
10
-81.000000000000014
20
46.5
30
0
11
-79.551477834227541
21
46.5
31
0
0
LINE
5
136
100
AcDbEntity
8
0
100
AcDbLine
10
79.510453132845086
20
-46.500044240863431
30
0
11
72.010595504985019
21
-46.499394395279381
31
0
0
LINE
5
137
100
AcDbEntity
8
0
100
AcDbLine
10
68.010248914095541
20
-50.499394380263738
30
0
11
68.010248914095484
21
-57.002506218280466
31
0
0
LINE
5
138
100
AcDbEntity
8
0
100
AcDbLine
10
-68.003861351062
20
-50.499265508955688
30
0
11
-68.003407587792751
21
-57.002506209428731
31
0
0
LINE
5
139
100
AcDbEntity
8
0
100
AcDbLine
10
-72.000001076228514
20
-46.499546471445569
30
0
11
-79.503484963172156
21
-46.500070026629203
31
0
0
CIRCLE
5
140
100
AcDbEntity
8
0
100
AcDbCircle
10
-78.500000000000014
20
-43.000000000000036
30
0
40
1.4999999999999971
210
0
220
0
230
1
0
CIRCLE
5
141
100
AcDbEntity
8
0
100
AcDbCircle
10
79.000000000000014
20
-43.500000000000007
30
0
40
1.5000000000000002
210
0
220
0
230
1
0
CIRCLE
5
142
100
AcDbEntity
8
0
100
AcDbCircle
10
67.500712113951835
20
49.49749296912492
30
0
40
1.4999999999999993
210
0
220
0
230
1
0
CIRCLE
5
143
100
AcDbEntity
8
0
100
AcDbCircle
10
-67.500712113951835
20
49.49749296912492
30
0
40
1.4999999999999971
210
0
220
0
230
1
0
LINE
5
144
100
AcDbEntity
8
0
100
AcDbLine
10
80.000000000436572
20
21.997806344074728
30
0
11
81.996516223824045
21
21.997806344074728
31
0
0
LINE
5
145
100
AcDbEntity
8
0
100
AcDbLine
10
79.999999999435474
20
18.997179594175343
30
0
11
82.010278286800414
21
18.997179594175346
31
0
0
LINE
5
146
100
AcDbEntity
8
0
100
AcDbLine
10
-80.000000000569585
20
21.997179586354775
30
0
11
-82.012129923058382
21
21.997179586354775
31
0
0
LINE
5
147
100
AcDbEntity
8
0
100
AcDbLine
10
-79.999999999561282
20
18.997806351895314
30
0
11
-82.003397608919798
21
18.997806351895306
31
0
0
CIRCLE
5
148
100
AcDbEntity
8
0
100
AcDbCircle
10
-11.003483776175935
20
55.49749296912492
30
0
40
1.5000000000000018
210
0
220
0
230
1
0
CIRCLE
5
149
100
AcDbEntity
8
0
100
AcDbCircle
10
4.996516223824079
20
55.49749296912492
30
0
40
1.500000000000004
210
0
220
0
230
1
0
LINE
5
150
100
AcDbEntity
8
0
100
AcDbLine
10
-68.502506207977547
20
58.997493792022468
30
0
11
68.502182782095971
21
58.997493792022468
31
0
0
LINE
5
151
100
AcDbEntity
8
0
100
AcDbLine
10
81.996516223824074
20
45.50294009095019
30
0
11
81.996516223824045
21
21.997806344074728
31
0
0
LINE
5
152
100
AcDbEntity
8
0
100
AcDbLine
10
82.010278286800414
20
18.997179594175346
30
0
11
82.010278286800414
21
-44.002506214007269
31
0
0
LINE
5
153
100
AcDbEntity
8
0
100
AcDbLine
10
55.010451920588544
20
-59.002506207977547
30
0
11
-55.003483776175955
21
-59.002506207977547
31
0
0
LINE
5
154
100
AcDbEntity
8
0
100
AcDbLine
10
-82.003397608919798
20
-44.00250620946251
30
0
11
-82.003397608919798
21
18.997806351895306
31
0
0
LINE
5
155
100
AcDbEntity
8
0
100
AcDbLine
10
-82.012129923058382
20
21.997179586354775
30
0
11
-82.012129923058396
21
45.487870076941626
31
0
0
ARC
5
156
100
AcDbEntity
8
0
100
AcDbCircle
10
-80.000306349244596
20
20.497492969124917
30
0
40
1.4996866485195182
210
-0
220
0
230
1
100
AcDbArc
50
-89.988295858972663
51
89.988295897495021
0
ARC
5
157
100
AcDbEntity
8
0
100
AcDbCircle
10
80.000306349222953
20
20.497492969124927
30
0
40
1.5003134062264603
210
0
220
0
230
1
100
AcDbArc
50
90.011699217355343
51
269.98830074441349
0
LINE
5
158
100
AcDbEntity
8
0
100
AcDbLine
10
-82.003483776175941
20
58.997492969124934
30
0
11
-82.003483776175941
21
-59.002506207977547
31
0
0
LINE
5
159
100
AcDbEntity
8
0
100
AcDbLine
10
81.996516223824074
20
46.497492969124934
30
0
11
81.996516223824074
21
45.50294009095019
31
0
0
ENDSEC
0
SECTION
2
OBJECTS
0
DICTIONARY
5
C
100
AcDbDictionary
3
ACAD_GROUP
350
D
3
ACAD_MLINESTYLE
350
17
0
DICTIONARY
5
D
100
AcDbDictionary
0
DICTIONARY
5
1A
330
C
100
AcDbDictionary
0
DICTIONARY
5
17
100
AcDbDictionary
0
ENDSEC
0
EOF
